<svg xmlns="http://www.w3.org/2000/svg" xmlns:svg="http://www.w3.org/2000/svg" xmlns:xlink="http://www.w3.org/1999/xlink" id="svg2" width="256" height="256" version="1.0"><defs id="defs4"><linearGradient id="linearGradient2555"><stop style="stop-color:#fff;stop-opacity:1" id="stop2557" offset="0"/><stop style="stop-color:#fff;stop-opacity:0" id="stop2559" offset="1"/></linearGradient><linearGradient id="linearGradient2449" x1="-344.153" x2="-395.849" y1="274.711" y2="425.4" gradientTransform="matrix(-0.5914583,0,0,0.5914584,210.0216,142.2324)" gradientUnits="userSpaceOnUse" xlink:href="#linearGradient2555"/></defs><metadata id="metadata7"/><g id="layer1" transform="translate(-373.642,-318.344)"><rect id="rect1942" width="235.008" height="234.99" x="-619.146" y="328.849" rx="35.488" ry="35.488" transform="scale(-1,1)" style="fill:#e15a00;fill-opacity:1;fill-rule:evenodd;stroke:none;stroke-width:.875;stroke-linecap:square;stroke-linejoin:miter;stroke-miterlimit:4;stroke-dasharray:.875,1.75;stroke-dashoffset:0;stroke-opacity:1"/><path id="path1950" d="M 557.05665,338.89518 L 446.22721,338.89518 C 416.89033,338.89518 393.27256,362.70492 393.27256,392.28025 L 393.27256,500.40761 C 394.22216,523.49366 397.87485,508.89915 404.82758,483.3329 C 412.90814,453.61975 439.22406,427.65003 471.27219,408.1872 C 495.73352,393.33195 523.11328,383.84595 572.95174,382.94353 C 601.21656,382.43177 598.72124,346.26062 557.05665,338.89518 z" style="opacity:.60747664;fill:url(#linearGradient2449);fill-opacity:1;fill-rule:evenodd;stroke:none;stroke-width:.875;stroke-linecap:square;stroke-linejoin:miter;stroke-miterlimit:4;stroke-dasharray:.875,1.75;stroke-dashoffset:0;stroke-opacity:1"/><path style="opacity:1;fill:#fff;fill-opacity:1;fill-rule:nonzero;stroke:none;stroke-width:12;stroke-linecap:round;stroke-miterlimit:4;stroke-dasharray:none;stroke-opacity:1" id="path5270" d="m 385.00001,200.64285 c 0,13.21539 -11.03299,23.92857 -24.64286,23.92857 -13.60988,0 -24.64286,-10.71318 -24.64286,-23.92857 0,-13.21538 11.03298,-23.92857 24.64286,-23.92857 13.60987,0 24.64286,10.71319 24.64286,23.92857 z" transform="matrix(0.8699574,0,0,0.8699574,135.15631,330.52863)"/><path style="fill:#fff;fill-opacity:1;fill-rule:evenodd;stroke:none;stroke-width:1px;stroke-linecap:butt;stroke-linejoin:miter;stroke-opacity:1" id="path5805" d="M 427.83482,455.05681 L 427.76203,424.78365 C 492.4681,428.1591 528.38081,474.45682 529.26224,526.72326 L 498.944,526.72326 C 498.44099,480.78249 467.20335,456.72804 427.83482,455.05681 z"/><path style="fill:#fff;fill-opacity:1;fill-rule:evenodd;stroke:none;stroke-width:1px;stroke-linecap:butt;stroke-linejoin:miter;stroke-opacity:1" id="path5807" d="M 428.20143,404.57149 L 427.32264,373.81385 C 526.75104,378.43011 580.00028,450.58197 580.67143,526.72326 L 549.4744,526.28386 C 550.83932,477.58037 514.80871,406.01731 428.20143,404.57149 z"/></g></svg>